# xmcd
#
# Track frame offsets:
#	150
#	14797
#	28630
#	44317
#	58229
#	73667
#	88500
#	102273
#	116098
#	131618
#	143868
#	154850
#	167275
#	181980
#	195207
#	208590
#	221588
#	235689
#	250004
#	263730
#	277025
#	290671
#	304172
#	318027
#	332547
#
# Disc length: 4600 seconds
#
# Revision: 0
# Processed by: cddbd v1.5.2PL0 Copyright (c) Steve Scherf et al.
# Submitted via: audiograbber 1.83.01
#
DISCID=6911f619
DTITLE=Louis Armstrong - The Real..Louis Armstrong - CD2
DYEAR=1900
DGENRE=
TTITLE0=Put 'Em Down Blues
TTITLE1=Ory's Creole Trombone
TTITLE2=The Last Time
TTITLE3=Struttin With Some Barbecue
TTITLE4=Got No Blues
TTITLE5=Once In A While
TTITLE6=I'm Not Rough
TTITLE7=Hotter Than That
TTITLE8=Savoy Blues
TTITLE9=He Likes It Slow
TTITLE10=Gamblers Dream
TTITLE11=Sunshine Baby
TTITLE12=Adam And Eve Had The Blues
TTITLE13=Put It Where I Can Get It
TTITLE14=Wash Woman Blues
TTITLE15=I've Stopped My Man
TTITLE16=Willie The Weeper
TTITLE17=Wild Man Blues
TTITLE18=Alligator Crawl
TTITLE19=Potato Head Blues
TTITLE20=Melancholy
TTITLE21=Weary Blues
TTITLE22=Twelfth Street Rag
TTITLE23=StJames Infirmary
TTITLE24=Weather Bird
EXTD=
EXTT0=
EXTT1=
EXTT2=
EXTT3=
EXTT4=
EXTT5=
EXTT6=
EXTT7=
EXTT8=
EXTT9=
EXTT10=
EXTT11=
EXTT12=
EXTT13=
EXTT14=
EXTT15=
EXTT16=
EXTT17=
EXTT18=
EXTT19=
EXTT20=
EXTT21=
EXTT22=
EXTT23=
EXTT24=
PLAYORDER=
